<svg width="18" height="10" viewBox="0 0 18 10" fill="none" xmlns="http://www.w3.org/2000/svg">
<path d="M4.43757e-05 7.27274V8.10623e-06H2.78414C3.3097 8.10623e-06 3.74649 0.0828679 4.0945 0.248587C4.44488 0.41194 4.70648 0.635662 4.87931 0.919752C5.0545 1.20384 5.14209 1.52581 5.14209 1.88566C5.14209 2.18159 5.08527 2.4349 4.97164 2.6456C4.858 2.85394 4.7053 3.02321 4.51354 3.15342C4.32178 3.28363 4.10753 3.37714 3.87078 3.43396V3.50498C4.12883 3.51918 4.37623 3.59849 4.61297 3.74291C4.85208 3.88495 5.04739 4.08618 5.19891 4.3466C5.35042 4.60702 5.42618 4.92188 5.42618 5.2912C5.42618 5.66762 5.33504 6.00616 5.15274 6.30683C4.97045 6.60512 4.69583 6.84068 4.32888 7.0135C3.96193 7.18632 3.50028 7.27274 2.94394 7.27274H4.43757e-05ZM1.31752 6.17188H2.73442C3.21264 6.17188 3.5571 6.08074 3.7678 5.89845C3.98087 5.71379 4.0874 5.47704 4.0874 5.18822C4.0874 4.97278 4.03414 4.77865 3.9276 4.60583C3.82107 4.43064 3.66955 4.29333 3.47306 4.1939C3.27656 4.0921 3.04218 4.0412 2.76993 4.0412H1.31752V6.17188ZM1.31752 3.09305H2.62078C2.84806 3.09305 3.05284 3.05162 3.23513 2.96876C3.41742 2.88353 3.56065 2.76398 3.66482 2.61009C3.77135 2.45384 3.82462 2.26918 3.82462 2.05612C3.82462 1.77439 3.72519 1.54238 3.52632 1.36009C3.32983 1.1778 3.03745 1.08666 2.64919 1.08666H1.31752V3.09305ZM8.08509 7.38282C7.73945 7.38282 7.42813 7.32127 7.15115 7.19816C6.87652 7.07269 6.65872 6.88803 6.49774 6.64418C6.33912 6.40034 6.25981 6.09968 6.25981 5.7422C6.25981 5.43443 6.31663 5.17993 6.43026 4.9787C6.5439 4.77747 6.69897 4.61649 6.89546 4.49575C7.09196 4.37501 7.31331 4.28386 7.55953 4.22231C7.80811 4.15839 8.06497 4.11222 8.33012 4.08381C8.64972 4.05067 8.90896 4.02108 9.10782 3.99504C9.30669 3.96663 9.4511 3.92401 9.54106 3.8672C9.63339 3.80801 9.67955 3.71686 9.67955 3.59376V3.57245C9.67955 3.30493 9.60025 3.09778 9.44163 2.951C9.28301 2.80422 9.05455 2.73083 8.75626 2.73083C8.44139 2.73083 8.19163 2.79949 8.00697 2.9368C7.82468 3.07411 7.70157 3.23628 7.63765 3.4233L6.43737 3.25285C6.53206 2.92141 6.68831 2.64442 6.90612 2.42188C7.12392 2.19698 7.39026 2.02889 7.70512 1.91762C8.01999 1.80399 8.368 1.74717 8.74916 1.74717C9.01194 1.74717 9.27354 1.77794 9.53396 1.8395C9.79437 1.90105 10.0323 2.00285 10.2477 2.14489C10.4632 2.28457 10.636 2.47515 10.7662 2.71663C10.8988 2.9581 10.9651 3.25995 10.9651 3.62217V7.27274H9.72927V6.52345H9.68666C9.60853 6.67496 9.49845 6.81701 9.3564 6.94958C9.21672 7.07979 9.04035 7.18514 8.82728 7.26563C8.61658 7.34376 8.36919 7.38282 8.08509 7.38282ZM8.4189 6.43822C8.67695 6.43822 8.90067 6.38732 9.09007 6.28552C9.27946 6.18135 9.42506 6.04404 9.52686 5.87359C9.63102 5.70313 9.68311 5.51729 9.68311 5.31606V4.6733C9.64286 4.70645 9.5742 4.73722 9.47714 4.76563C9.38244 4.79404 9.27591 4.8189 9.15754 4.84021C9.03917 4.86151 8.92198 4.88045 8.80597 4.89703C8.68997 4.9136 8.58936 4.9278 8.50413 4.93964C8.31237 4.96568 8.14073 5.00829 7.98921 5.06748C7.8377 5.12667 7.71814 5.20953 7.63055 5.31606C7.54295 5.42023 7.49916 5.55517 7.49916 5.72089C7.49916 5.95763 7.58557 6.13637 7.75839 6.25711C7.93121 6.37785 8.15138 6.43822 8.4189 6.43822ZM14.6298 9.43183C14.1682 9.43183 13.7716 9.36909 13.4402 9.24362C13.1088 9.12051 12.8424 8.95479 12.6412 8.74646C12.44 8.53812 12.3003 8.3073 12.2222 8.05399L13.3798 7.77345C13.4319 7.87998 13.5077 7.98533 13.6071 8.0895C13.7065 8.19603 13.8403 8.28363 14.0084 8.35228C14.1788 8.4233 14.3931 8.45882 14.6511 8.45882C15.0157 8.45882 15.3176 8.37004 15.5567 8.19248C15.7958 8.01729 15.9153 7.72846 15.9153 7.326V6.29262H15.8514C15.7851 6.4252 15.6881 6.56132 15.5602 6.701C15.4348 6.84068 15.2679 6.95787 15.0595 7.05257C14.8536 7.14726 14.5943 7.19461 14.2818 7.19461C13.8628 7.19461 13.4828 7.09636 13.1419 6.89987C12.8034 6.701 12.5335 6.40507 12.3323 6.01208C12.1334 5.61672 12.034 5.12193 12.034 4.52771C12.034 3.92875 12.1334 3.4233 12.3323 3.01137C12.5335 2.59707 12.8046 2.28339 13.1455 2.07032C13.4864 1.85489 13.8663 1.74717 14.2854 1.74717C14.605 1.74717 14.8678 1.80162 15.0737 1.91052C15.2821 2.01705 15.4478 2.14608 15.5709 2.29759C15.694 2.44674 15.7875 2.5876 15.8514 2.72018H15.9225V1.81819H17.1902V7.36151C17.1902 7.8279 17.0789 8.21379 16.8564 8.51918C16.6339 8.82458 16.3296 9.05304 15.9438 9.20455C15.5579 9.35607 15.1199 9.43183 14.6298 9.43183ZM14.6405 6.18609C14.9127 6.18609 15.1448 6.1198 15.3365 5.98722C15.5283 5.85465 15.6739 5.66407 15.7733 5.41549C15.8727 5.16691 15.9225 4.86862 15.9225 4.5206C15.9225 4.17733 15.8727 3.87667 15.7733 3.61862C15.6762 3.36057 15.5318 3.16052 15.3401 3.01847C15.1507 2.87406 14.9175 2.80185 14.6405 2.80185C14.354 2.80185 14.1149 2.87643 13.9232 3.02558C13.7314 3.17472 13.587 3.37951 13.4899 3.63992C13.3929 3.89797 13.3443 4.19153 13.3443 4.5206C13.3443 4.85441 13.3929 5.14679 13.4899 5.39774C13.5894 5.64632 13.735 5.84044 13.9267 5.98012C14.1208 6.11743 14.3588 6.18609 14.6405 6.18609Z" fill="#181818"/>
</svg>
