<svg width="430" height="77" viewBox="0 0 430 77" fill="none" xmlns="http://www.w3.org/2000/svg">
<rect width="430" height="77" fill="white"/>
<path d="M24 44.5H34" stroke="#181818" stroke-width="2" stroke-linecap="round" stroke-linejoin="round"/>
<path d="M24 38.5H40" stroke="#181818" stroke-width="2" stroke-linecap="round" stroke-linejoin="round"/>
<path d="M24 32.5H30" stroke="#181818" stroke-width="2" stroke-linecap="round" stroke-linejoin="round"/>
<path d="M181.061 45.5V32.4091H186.225C187.214 32.4091 188.058 32.5859 188.757 32.9396C189.46 33.2891 189.995 33.7855 190.361 34.429C190.732 35.0682 190.917 35.8203 190.917 36.6854C190.917 37.5547 190.73 38.3026 190.355 38.929C189.98 39.5511 189.436 40.0284 188.725 40.3608C188.017 40.6932 187.161 40.8594 186.155 40.8594H182.697V38.6349H185.708C186.236 38.6349 186.675 38.5625 187.024 38.4176C187.374 38.2727 187.634 38.0554 187.804 37.7656C187.979 37.4759 188.066 37.1158 188.066 36.6854C188.066 36.2507 187.979 35.8842 187.804 35.5859C187.634 35.2876 187.372 35.0618 187.018 34.9084C186.669 34.7507 186.228 34.6719 185.695 34.6719H183.828V45.5H181.061ZM188.13 39.5426L191.384 45.5H188.328L185.145 39.5426H188.13ZM199.118 41.3196V35.6818H201.841V45.5H199.227V43.7166H199.125C198.903 44.2919 198.534 44.7543 198.019 45.1037C197.507 45.4531 196.883 45.6278 196.146 45.6278C195.49 45.6278 194.912 45.4787 194.414 45.1804C193.915 44.8821 193.525 44.4581 193.244 43.9084C192.967 43.3587 192.826 42.7003 192.822 41.9332V35.6818H195.545V41.4474C195.549 42.027 195.705 42.4851 196.012 42.8217C196.318 43.1584 196.73 43.3267 197.245 43.3267C197.573 43.3267 197.88 43.2521 198.166 43.103C198.451 42.9496 198.681 42.7237 198.856 42.4254C199.035 42.1271 199.122 41.7585 199.118 41.3196ZM206.742 39.8239V45.5H204.019V35.6818H206.614V37.4141H206.729C206.947 36.843 207.311 36.3913 207.823 36.0589C208.334 35.7223 208.954 35.554 209.683 35.554C210.364 35.554 210.959 35.7031 211.466 36.0014C211.973 36.2997 212.367 36.7259 212.649 37.2798C212.93 37.8295 213.07 38.4858 213.07 39.2486V45.5H210.347V39.7344C210.352 39.1335 210.198 38.6648 209.887 38.3281C209.576 37.9872 209.148 37.8168 208.602 37.8168C208.236 37.8168 207.912 37.8956 207.631 38.0533C207.354 38.2109 207.136 38.4411 206.979 38.7436C206.825 39.0419 206.747 39.402 206.742 39.8239ZM217.153 45.5L214.481 35.6818H217.236L218.758 42.2784H218.847L220.432 35.6818H223.136L224.747 42.2401H224.83L226.326 35.6818H229.074L226.409 45.5H223.526L221.839 39.3253H221.717L220.03 45.5H217.153ZM233.327 45.6854C232.7 45.6854 232.142 45.5767 231.652 45.3594C231.162 45.1378 230.774 44.8118 230.489 44.3814C230.207 43.9467 230.067 43.4055 230.067 42.7578C230.067 42.2124 230.167 41.7543 230.367 41.3835C230.568 41.0128 230.84 40.7145 231.185 40.4886C231.531 40.2628 231.923 40.0923 232.362 39.9773C232.805 39.8622 233.269 39.7812 233.755 39.7344C234.326 39.6747 234.786 39.6193 235.136 39.5682C235.485 39.5128 235.739 39.4318 235.896 39.3253C236.054 39.2187 236.133 39.0611 236.133 38.8523V38.8139C236.133 38.4091 236.005 38.0959 235.749 37.8743C235.498 37.6527 235.14 37.5419 234.676 37.5419C234.185 37.5419 233.796 37.6506 233.506 37.8679C233.216 38.081 233.024 38.3494 232.93 38.6733L230.412 38.4688C230.54 37.8722 230.791 37.3565 231.166 36.9219C231.541 36.483 232.025 36.1463 232.617 35.9119C233.214 35.6733 233.904 35.554 234.688 35.554C235.234 35.554 235.756 35.6179 236.254 35.7457C236.757 35.8736 237.203 36.0717 237.59 36.3402C237.982 36.6087 238.291 36.9538 238.517 37.3757C238.743 37.7933 238.856 38.294 238.856 38.8778V45.5H236.274V44.1385H236.197C236.039 44.4453 235.828 44.7159 235.564 44.9503C235.3 45.1804 234.982 45.3615 234.612 45.4936C234.241 45.6214 233.813 45.6854 233.327 45.6854ZM234.107 43.8061C234.507 43.8061 234.861 43.7273 235.168 43.5696C235.475 43.4077 235.715 43.1903 235.89 42.9176C236.065 42.6449 236.152 42.3359 236.152 41.9908V40.9489C236.067 41.0043 235.95 41.0554 235.801 41.1023C235.656 41.1449 235.492 41.1854 235.308 41.2237C235.125 41.2578 234.942 41.2898 234.759 41.3196C234.575 41.3452 234.409 41.3686 234.26 41.3899C233.94 41.4368 233.661 41.5114 233.423 41.6136C233.184 41.7159 232.999 41.8544 232.867 42.0291C232.734 42.1996 232.668 42.4126 232.668 42.6683C232.668 43.0391 232.803 43.3224 233.071 43.5185C233.344 43.7102 233.689 43.8061 234.107 43.8061ZM242.298 49.1818C241.953 49.1818 241.629 49.1541 241.326 49.0987C241.028 49.0476 240.781 48.9815 240.585 48.9006L241.199 46.8679C241.518 46.9659 241.806 47.0192 242.062 47.0277C242.321 47.0362 242.545 46.9766 242.733 46.8487C242.924 46.7209 243.08 46.5036 243.199 46.1967L243.359 45.7812L239.837 35.6818H242.701L244.733 42.892H244.836L246.888 35.6818H249.77L245.954 46.5611C245.771 47.0895 245.522 47.5497 245.206 47.9418C244.895 48.3381 244.501 48.6428 244.024 48.8558C243.547 49.0732 242.971 49.1818 242.298 49.1818Z" fill="black"/>
<path d="M404.75 36.21V35.505C404.75 31.636 401.726 28.5 398 28.5C394.274 28.5 391.25 31.636 391.25 35.505V36.21C391.251 37.0516 391.011 37.8758 390.558 38.585L389.45 40.31C388.439 41.885 389.211 44.026 390.97 44.524C395.566 45.827 400.434 45.827 405.03 44.524C406.789 44.026 407.561 41.885 406.55 40.311L405.442 38.586C404.989 37.8769 404.748 37.0527 404.749 36.211L404.75 36.21Z" stroke="#181818" stroke-width="2"/>
<path opacity="0.5" d="M393.5 45.5C394.155 47.248 395.922 48.5 398 48.5C400.078 48.5 401.845 47.248 402.5 45.5" stroke="#181818" stroke-width="2" stroke-linecap="round"/>
</svg>
