<svg width="25" height="8" viewBox="0 0 25 8" fill="none" xmlns="http://www.w3.org/2000/svg">
<path d="M4.43757e-05 7.6243V0.351571H1.31752V6.51989H4.52064V7.6243H4.43757e-05ZM5.60729 7.6243V2.16975H6.8928V7.6243H5.60729ZM6.2536 1.3956C6.05 1.3956 5.87481 1.32813 5.72803 1.19319C5.58125 1.05588 5.50786 0.891343 5.50786 0.699582C5.50786 0.505453 5.58125 0.340917 5.72803 0.205974C5.87481 0.0686633 6.05 8.10623e-06 6.2536 8.10623e-06C6.45956 8.10623e-06 6.63475 0.0686633 6.77916 0.205974C6.92594 0.340917 6.99933 0.505453 6.99933 0.699582C6.99933 0.891343 6.92594 1.05588 6.77916 1.19319C6.63475 1.32813 6.45956 1.3956 6.2536 1.3956ZM9.38659 5.91265L9.38303 4.3608H9.589L11.5492 2.16975H13.0514L10.6401 4.85441H10.3738L9.38659 5.91265ZM8.21471 7.6243V0.351571H9.50022V7.6243H8.21471ZM11.638 7.6243L9.86244 5.14205L10.7289 4.23651L13.1756 7.6243H11.638ZM16.0982 7.73083C15.5514 7.73083 15.0791 7.6172 14.6813 7.38992C14.286 7.16028 13.9818 6.83595 13.7687 6.41691C13.5556 5.99551 13.4491 5.49953 13.4491 4.92899C13.4491 4.36791 13.5556 3.87548 13.7687 3.45171C13.9841 3.02558 14.2848 2.69414 14.6707 2.45739C15.0566 2.21828 15.5099 2.09873 16.0308 2.09873C16.3669 2.09873 16.6842 2.15318 16.9825 2.26208C17.2831 2.36862 17.5483 2.53434 17.7779 2.75924C18.0099 2.98415 18.1922 3.2706 18.3248 3.61862C18.4574 3.96426 18.5237 4.37619 18.5237 4.85441V5.24859H14.0528V4.38211H17.2914C17.289 4.1359 17.2358 3.91691 17.1316 3.72515C17.0274 3.53102 16.8819 3.37832 16.6948 3.26705C16.5102 3.15578 16.2947 3.10015 16.0485 3.10015C15.7857 3.10015 15.5549 3.16407 15.356 3.29191C15.1572 3.41739 15.0021 3.5831 14.8908 3.78907C14.7819 3.99267 14.7263 4.21639 14.7239 4.46024V5.21663C14.7239 5.53386 14.7819 5.80612 14.8979 6.03339C15.014 6.25829 15.1761 6.43112 15.3845 6.55185C15.5928 6.67023 15.8366 6.72941 16.116 6.72941C16.303 6.72941 16.4723 6.70337 16.6238 6.65129C16.7753 6.59684 16.9067 6.51753 17.018 6.41336C17.1292 6.30919 17.2133 6.18017 17.2701 6.02629L18.4704 6.16123C18.3946 6.47846 18.2502 6.75545 18.0372 6.9922C17.8265 7.22657 17.5566 7.40886 17.2275 7.53907C16.8984 7.66691 16.522 7.73083 16.0982 7.73083ZM23.9223 3.61151L22.7504 3.73935C22.7173 3.62098 22.6593 3.50971 22.5764 3.40555C22.4959 3.30138 22.387 3.21734 22.2497 3.15342C22.1124 3.0895 21.9443 3.05754 21.7454 3.05754C21.4779 3.05754 21.253 3.11554 21.0707 3.23154C20.8908 3.34755 20.802 3.49788 20.8044 3.68254C20.802 3.84115 20.86 3.97018 20.9784 4.06961C21.0991 4.16904 21.298 4.25072 21.575 4.31464L22.5054 4.5135C23.0215 4.62477 23.405 4.80114 23.6559 5.04262C23.9093 5.2841 24.0371 5.60015 24.0395 5.99078C24.0371 6.33405 23.9365 6.63708 23.7376 6.89987C23.5411 7.16028 23.2677 7.36388 22.9173 7.51066C22.5669 7.65744 22.1645 7.73083 21.7099 7.73083C21.0423 7.73083 20.5049 7.59115 20.0977 7.3118C19.6905 7.03007 19.4478 6.63827 19.3697 6.13637L20.6233 6.01563C20.6801 6.26185 20.8008 6.44769 20.9855 6.57316C21.1701 6.69864 21.4104 6.76137 21.7064 6.76137C22.0118 6.76137 22.2568 6.69864 22.4415 6.57316C22.6285 6.44769 22.722 6.29262 22.722 6.10796C22.722 5.95171 22.6616 5.82269 22.5409 5.72089C22.4225 5.61909 22.2379 5.54096 21.9869 5.48651L21.0565 5.2912C20.5333 5.1823 20.1462 4.99882 19.8953 4.74078C19.6443 4.48036 19.52 4.15129 19.5224 3.75356C19.52 3.41739 19.6112 3.12619 19.7959 2.87998C19.9829 2.6314 20.2421 2.43964 20.5736 2.3047C20.9074 2.16739 21.2921 2.09873 21.7277 2.09873C22.3669 2.09873 22.87 2.23486 23.2369 2.50711C23.6062 2.77936 23.8347 3.1475 23.9223 3.61151Z" fill="#181818"/>
</svg>
