<svg width="29" height="43" viewBox="0 0 29 43" fill="none" xmlns="http://www.w3.org/2000/svg">
<path d="M25 13.125V23.625C25 23.8571 24.9078 24.0796 24.7437 24.2437C24.5796 24.4078 24.3571 24.5 24.125 24.5H18C17.7679 24.5 17.5454 24.4078 17.3813 24.2437C17.2172 24.0796 17.125 23.8571 17.125 23.625V17.9375C17.125 17.8215 17.0789 17.7102 16.9969 17.6282C16.9148 17.5461 16.8035 17.5 16.6875 17.5H12.3125C12.1965 17.5 12.0852 17.5461 12.0031 17.6282C11.9211 17.7102 11.875 17.8215 11.875 17.9375V23.625C11.875 23.8571 11.7828 24.0796 11.6187 24.2437C11.4546 24.4078 11.2321 24.5 11 24.5H4.875C4.64294 24.5 4.42038 24.4078 4.25628 24.2437C4.09219 24.0796 4 23.8571 4 23.625V13.125C4.00022 12.661 4.18473 12.216 4.51297 11.888L13.263 3.13798C13.5911 2.81004 14.0361 2.62582 14.5 2.62582C14.9639 2.62582 15.4089 2.81004 15.737 3.13798L24.487 11.888C24.8153 12.216 24.9998 12.661 25 13.125Z" fill="black"/>
<path d="M1.00346 41V33.7273H2.32093V36.8061H5.69096V33.7273H7.01199V41H5.69096V37.9105H2.32093V41H1.00346ZM10.7673 41.1065C10.2346 41.1065 9.77299 40.9893 9.38237 40.755C8.99174 40.5206 8.68871 40.1927 8.47328 39.7713C8.26021 39.3499 8.15368 38.8575 8.15368 38.294C8.15368 37.7306 8.26021 37.237 8.47328 36.8132C8.68871 36.3894 8.99174 36.0604 9.38237 35.826C9.77299 35.5916 10.2346 35.4744 10.7673 35.4744C11.3 35.4744 11.7616 35.5916 12.1523 35.826C12.5429 36.0604 12.8447 36.3894 13.0578 36.8132C13.2732 37.237 13.3809 37.7306 13.3809 38.294C13.3809 38.8575 13.2732 39.3499 13.0578 39.7713C12.8447 40.1927 12.5429 40.5206 12.1523 40.755C11.7616 40.9893 11.3 41.1065 10.7673 41.1065ZM10.7744 40.0767C11.0632 40.0767 11.3047 39.9974 11.4988 39.8388C11.693 39.6778 11.8374 39.4624 11.9321 39.1925C12.0291 38.9226 12.0777 38.6219 12.0777 38.2905C12.0777 37.9567 12.0291 37.6548 11.9321 37.3849C11.8374 37.1127 11.693 36.8961 11.4988 36.7351C11.3047 36.5741 11.0632 36.4936 10.7744 36.4936C10.4785 36.4936 10.2323 36.5741 10.0358 36.7351C9.84165 36.8961 9.69605 37.1127 9.59899 37.3849C9.50429 37.6548 9.45694 37.9567 9.45694 38.2905C9.45694 38.6219 9.50429 38.9226 9.59899 39.1925C9.69605 39.4624 9.84165 39.6778 10.0358 39.8388C10.2323 39.9974 10.4785 40.0767 10.7744 40.0767ZM14.472 41V35.5455H15.7007V36.4723H15.7646C15.8783 36.1598 16.0665 35.916 16.3293 35.7408C16.5921 35.5632 16.9057 35.4744 17.2703 35.4744C17.6396 35.4744 17.951 35.5644 18.2043 35.7443C18.46 35.9219 18.6399 36.1645 18.7441 36.4723H18.8009C18.9216 36.1693 19.1252 35.9278 19.4117 35.7479C19.7005 35.5656 20.0426 35.4744 20.4379 35.4744C20.9398 35.4744 21.3494 35.633 21.6666 35.9503C21.9839 36.2675 22.1425 36.7304 22.1425 37.3388V41H20.8534V37.5376C20.8534 37.1991 20.7635 36.9517 20.5835 36.7955C20.4036 36.6368 20.1834 36.5575 19.923 36.5575C19.6129 36.5575 19.3702 36.6546 19.195 36.8487C19.0222 37.0405 18.9358 37.2902 18.9358 37.598V41H17.6752V37.4844C17.6752 37.2027 17.5899 36.9777 17.4195 36.8097C17.2514 36.6416 17.0312 36.5575 16.759 36.5575C16.5743 36.5575 16.4062 36.6049 16.2547 36.6996C16.1032 36.7919 15.9825 36.9233 15.8925 37.0938C15.8025 37.2618 15.7575 37.4583 15.7575 37.6832V41H14.472ZM25.8614 41.1065C25.3145 41.1065 24.8422 40.9929 24.4445 40.7656C24.0492 40.536 23.7449 40.2116 23.5319 39.7926C23.3188 39.3712 23.2123 38.8752 23.2123 38.3047C23.2123 37.7436 23.3188 37.2512 23.5319 36.8274C23.7473 36.4013 24.048 36.0698 24.4339 35.8331C24.8198 35.594 25.2731 35.4744 25.7939 35.4744C26.1301 35.4744 26.4474 35.5289 26.7456 35.6378C27.0463 35.7443 27.3115 35.91 27.5411 36.1349C27.7731 36.3598 27.9554 36.6463 28.088 36.9943C28.2206 37.34 28.2868 37.7519 28.2868 38.2301V38.6243H23.816V37.7578H27.0546C27.0522 37.5116 26.999 37.2926 26.8948 37.1009C26.7906 36.9067 26.645 36.754 26.458 36.6428C26.2733 36.5315 26.0579 36.4759 25.8117 36.4759C25.5489 36.4759 25.3181 36.5398 25.1192 36.6676C24.9204 36.7931 24.7653 36.9588 24.654 37.1648C24.5451 37.3684 24.4895 37.5921 24.4871 37.8359V38.5923C24.4871 38.9096 24.5451 39.1818 24.6611 39.4091C24.7771 39.634 24.9393 39.8068 25.1476 39.9276C25.356 40.0459 25.5998 40.1051 25.8792 40.1051C26.0662 40.1051 26.2355 40.0791 26.387 40.027C26.5385 39.9725 26.6699 39.8932 26.7812 39.7891C26.8924 39.6849 26.9765 39.5559 27.0333 39.402L28.2336 39.5369C28.1578 39.8542 28.0134 40.1312 27.8003 40.3679C27.5896 40.6023 27.3198 40.7846 26.9907 40.9148C26.6616 41.0426 26.2852 41.1065 25.8614 41.1065Z" fill="black"/>
</svg>
